<svg xmlns="http://www.w3.org/2000/svg" width="500" height="200" viewBox="0 0 500 200">
    <path opacity=".75" d="M70.6 58.8v70.6l58.8-58.8v-70.6z"/>
    <path opacity=".75" d="M141.2 70.6h-11.8l-58.8 58.8h70.6l58.8-58.8z"/>
    <path opacity=".75" d="M70.6 129.4v70.6l58.8-58.8v-70.6z"/>
    <path opacity=".75" d="M70.6 70.6h-11.8l-58.8 58.8h70.6l58.8-58.8z"/>
    <path d="M215.4 39.5h-15.4l-26-.1v90h26v-25.9h15.2c23.9 0 38.8-12.6 38.8-32s-14.8-32-38.6-32zm-3.6 45h-11.8v-26h11.8c8.5 0 14.2 5.1 14.2 13s-5.7 13-14.2 13z"/>
    <path d="M290 106.4v-67h-26v90h68v-23z"/>
    <path d="M384 39.4v67.4c-2 3.1-5.8 4.9-9.4 4.9-5.6 0-8.6-4.4-8.6-10.7v-61.6h-24v66c0 15.1 9.3 26 23.1 26 7.2 0 13.9-2.9 18.9-9.3v7.3h26v-90h-26z"/>
    <path d="M420 100.1h24.6c0 7.4 5.9 12.2 15 12.2 6.8 0 11.6-3.2 11.6-8.4 0-6.2-6.8-7.2-15.2-8-14.4-1.5-35.6-2.8-35.6-26.8 0-18.3 15-29.7 37.8-29.7 22.1 0 38.5 11.2 38.5 29h-25.7c-.2-6-5.4-10.1-12.8-10.1-6.5 0-11.1 3.2-11.1 7.9 0 6.5 9.4 6.9 20.1 8.2 14.5 1.7 32.8 5.5 32.8 26 0 19.3-15.6 31-41 31-24 0-39-11.9-39-31.3z"/>
</svg>
